<svg width="364" height="182" viewBox="0 0 364 182" fill="none" xmlns="http://www.w3.org/2000/svg">
<path d="M343.891 41.0895C347.489 46.3868 351.944 50.4494 356.018 54.8362C363.714 63.123 364.763 72.5992 362.15 83.1934C360.328 90.5778 360.861 98.3993 358.348 105.734C354.083 118.184 350.417 130.992 341.133 140.869C328.535 154.271 313.257 162.261 294.44 162.336C291.618 162.347 288.849 162.154 286.4 164.194C275.733 173.078 262.743 176.069 249.536 178.303C208.153 185.303 168.047 178.283 128.292 167.2C103.92 160.405 80.2764 151.231 55.7319 145.04C40.8422 141.284 25.802 138.425 10.3413 141.272C8.39138 141.631 6.49532 142.325 4.6065 142.96C3.17583 143.441 1.73968 144.261 0.620597 142.528C-0.437356 140.89 -0.0636064 139.251 1.14452 137.926C5.57244 133.073 10.8854 130.035 17.6497 129.73C34.1871 128.985 49.5784 133.817 64.7679 139.424C95.851 150.9 126.992 162.243 159.536 168.912C193.411 175.855 227.434 178.336 261.478 169.765C266.976 168.38 272.187 166.154 277.299 163.672C281.593 161.587 283.339 158.557 282.68 153.683C281.728 146.644 283.079 139.775 285.242 133.05C290.812 115.728 303.287 105.567 319.887 99.813C327.749 97.0879 335.747 94.7581 343.668 92.2037C358.06 87.5624 362.07 73.8712 352.337 62.237C349.568 58.9275 346.254 56.0809 343.326 52.8976C332.153 40.753 330.329 27.6034 337.901 12.9727C339.808 9.28872 342.166 5.83172 344.415 2.3344C345.415 0.780234 346.68 -0.963478 348.807 0.632774C350.758 2.0982 349.906 4.03619 348.797 5.51888C345.668 9.7033 343.566 14.346 341.798 19.2324C339.072 26.7669 339.514 33.9107 343.891 41.0895ZM319.138 124.67C312.564 129.382 305.947 134.048 301.427 141.026C309.48 133.667 318.715 127.733 326.292 119.783C324.1 121.274 321.908 122.764 319.138 124.67Z" fill="black"/>
</svg>
