<svg width="733" height="289" viewBox="0 0 733 289" fill="none" xmlns="http://www.w3.org/2000/svg">
<path d="M289.816 262.899C279.514 271.577 268.889 278.929 255.604 281.289C238.287 284.364 224.352 279.016 224.409 256.097C220.767 259.502 217.548 262.726 214.098 265.68C209.927 269.253 205.693 272.782 201.24 275.989C196.586 279.34 191.413 281.487 185.462 281.456C177.407 281.414 172.775 277.994 170.687 270.103C168.626 262.309 169.531 254.519 171.23 246.848C176.057 225.059 184.998 204.791 194.817 184.905C205.696 162.871 218.554 142.063 234.578 123.341C240.674 116.219 247.763 110.152 255.508 104.875C258.85 102.597 262.57 101.189 266.576 100.502C275.998 98.8841 282.126 104.942 280.667 114.484C278.958 125.669 273.54 135.258 267.192 144.271C248.5 170.809 227.164 194.95 201.605 215.159C200.046 216.392 198.299 217.476 197.511 219.441C191.822 233.629 184.75 247.336 182.736 262.794C182.233 266.655 182.345 270.31 185.607 272.783C188.897 275.278 192.46 273.909 195.416 271.955C209.27 262.797 221.995 252.288 230.449 237.734C239.733 221.75 251.456 208.594 268.715 201.084C272.7 199.35 276.771 197.942 281.21 197.856C294.003 197.607 300.153 206.855 294.934 218.633C291.498 226.387 285.572 231.953 278.581 236.395C269.205 242.352 259.241 246.859 247.876 247.217C245.702 247.285 244.57 248.229 243.878 250.219C242.367 254.558 241.782 259.003 242.539 263.506C243.759 270.755 247.993 274.043 255.425 274.027C259.896 274.018 264.105 272.81 267.82 270.594C283.373 261.318 297.628 250.782 306.852 234.408C316.328 217.586 330.063 205.198 348.983 199.724C362.666 195.765 367.365 197.707 375.207 208.985C377.181 208.731 377.843 206.944 378.445 205.584C381.137 199.504 386.334 198.946 391.844 199.387C398.485 199.919 399.738 202.387 396.456 208.2C391.052 217.771 385.489 227.254 380.07 236.817C374.811 246.096 369.598 255.409 366.897 265.85C366.273 268.261 365.339 270.842 367.905 272.704C370.284 274.43 372.479 272.823 374.375 271.671C384.784 265.348 392.6 256.132 400.663 247.29C408.628 238.556 416.035 229.315 423.743 220.344C425.933 217.794 426.793 215.176 426.337 211.669C424.995 201.37 431.61 189.349 440.811 184.569C443.376 183.236 446.09 182.581 448.993 182.685C455.483 182.92 458.948 188.432 455.942 194.132C452.954 199.795 448.638 204.496 443.797 208.601C439.948 211.865 438.985 215.024 441.456 219.765C445.687 227.882 449.491 236.246 450.792 245.474C451.232 248.592 452.931 249.387 455.713 247.987C465.411 243.108 475.044 238.422 479.94 227.538C483.345 219.97 487.937 212.935 492.009 205.667C495.069 200.206 504.295 197.344 509.907 200.211C513.193 201.89 512.479 204.506 511.076 207.028C506.217 215.758 501.247 224.427 496.419 233.174C491.27 242.5 485.634 251.588 481.754 261.559C480.45 264.908 478.253 269.178 481.527 271.77C484.946 274.475 488.96 271.737 491.929 269.374C509.173 255.653 523.4 239.247 534.716 220.342C537.882 215.054 540.738 209.582 543.878 204.278C546.475 199.893 557.138 197.628 561.336 200.462C564.204 202.399 563.146 204.75 561.875 207.031C557.173 215.468 552.378 223.855 547.733 232.324C542.526 241.818 537.36 251.339 533.644 261.555C533.302 262.494 532.845 263.417 532.673 264.388C532.185 267.156 531.205 270.307 533.932 272.259C536.44 274.053 539.119 272.482 541.369 271.067C549.662 265.851 556.076 258.563 562.42 251.284C573.058 239.079 581.934 225.533 591.412 212.448C593.381 209.73 593.884 207.605 591.173 204.651C585.873 198.877 585.036 191.457 588.312 186.281C591.847 180.696 602.918 175.499 608.771 176.805C613.036 177.756 613.651 180.988 612.951 184.565C611.983 189.517 609.752 194.006 607.258 198.361C606.198 200.21 604.698 201.864 604.485 205.03C611.062 206.913 617.742 208.113 624.758 207.343C628.066 206.98 631.405 206.494 634.71 206.616C639.337 206.787 640.785 209.898 638.103 213.713C630.146 225.033 622.657 236.652 615.707 248.611C613.369 252.635 611.14 256.77 609.377 261.067C607.986 264.458 605.303 268.642 609.011 271.684C612.552 274.589 615.773 270.829 618.858 269.208C620.753 268.212 622.485 266.823 624.105 265.398C635.732 255.173 646.853 244.764 654.676 230.863C663.406 215.35 676.618 204.196 694.116 198.946C703.033 196.271 710.961 197.936 714.793 203.205C718.626 208.475 717.781 216.629 711.875 223.982C701.012 237.506 686.484 244.737 669.47 246.834C665.486 247.325 663.96 248.958 663.303 252.494C662.021 259.384 660.992 266.482 667.152 271.476C673.214 276.392 679.959 273.796 686.07 271.046C697.029 266.114 705.877 258.222 714.071 249.617C718.432 245.037 722.432 240.115 726.712 235.455C728.047 234.002 729.414 231.327 731.932 233.538C733.941 235.303 732.521 237.198 731.247 238.806C720.223 252.719 708.217 265.579 692.733 274.711C683.72 280.026 674.09 282.457 663.576 281.467C652.571 280.432 645.936 274.114 644.685 262.998C644.432 260.742 644.375 258.463 644.18 255.477C637.778 261.199 631.998 266.622 625.94 271.713C619.056 277.497 611.509 281.85 601.996 281.408C593.515 281.013 588.419 275.812 588.449 267.349C588.467 262.561 590.002 258.183 591.916 253.906C597.625 241.147 605.995 230.168 614.932 219.564C616.073 218.211 617.692 217.136 618.033 214.831C612.592 213.462 607.186 212.039 601.747 210.758C598.567 210.009 597.909 212.98 596.748 214.733C587.634 228.491 578.006 241.863 567.487 254.584C562.07 261.134 556.412 267.452 549.85 272.913C545.567 276.478 540.891 279.318 535.486 280.74C525.766 283.297 518.146 277.594 517.567 267.553C517.298 262.887 518.116 258.322 518.873 253.376C516.206 253.621 515.358 255.594 514.196 256.97C508.912 263.229 503.128 268.961 496.728 274.072C493.035 277.021 488.898 279.131 484.38 280.471C472.09 284.115 462.968 275.948 465.064 263.194C465.894 258.146 467.658 253.339 469.514 247.828C463.586 250.622 458.57 253.567 453.044 255.395C450.025 256.394 449.896 259.499 449.02 261.918C444.113 275.468 434.461 283.017 420.269 284.904C416.415 285.416 412.619 285.155 408.947 283.766C400.424 280.543 398.848 271.313 405.972 265.648C412.376 260.554 420.067 258.253 427.81 256.147C433.783 254.522 435.287 252.691 434.449 246.602C433.459 239.405 431.927 232.291 428.833 225.5C425.642 226.114 424.479 228.468 422.968 230.326C411.3 244.674 399.621 259.001 385.608 271.216C380.766 275.438 375.521 278.861 369.297 280.584C359.418 283.32 351.856 277.718 351.657 267.537C351.584 263.789 351.645 260.039 351.645 255.983C348.774 257.235 347.148 259.824 345.239 261.996C340.815 267.029 335.805 271.396 330.513 275.458C327.444 277.813 324.008 279.485 320.28 280.547C308.531 283.894 299.513 277.636 298.718 265.484C298.524 262.531 298.689 259.554 298.689 255.944C294.846 257.72 292.627 260.412 289.816 262.899ZM341.398 256.958C349.345 248.631 356.095 239.339 362.928 230.12C365.015 227.305 366.696 224.185 367.539 220.77C368.691 216.101 370.459 210.805 366.017 207.267C361.568 203.722 356.69 206.337 352.575 208.884C336.041 219.118 324.532 233.591 317.295 251.558C315.167 256.842 313.487 262.201 313.905 268.016C314.31 273.638 316.4 275.051 321.765 273.154C324.949 272.029 327.725 270.157 330.173 267.893C333.832 264.507 337.333 260.949 341.398 256.958ZM263.911 136.507C268.02 130.025 272.125 123.504 273.511 115.808C273.925 113.509 274.876 110.435 272.192 108.953C269.864 107.668 267.722 109.624 265.931 111.018C261.594 114.396 257.51 118.047 254.037 122.373C237.903 142.474 225.387 164.849 213.102 187.366C210.42 192.282 208.028 197.355 205.502 202.355C205.886 202.633 206.27 202.912 206.654 203.19C228.218 183.46 247.731 161.925 263.911 136.507ZM691.604 212.161C682.036 220.122 673.667 229.026 667.828 241.742C680.529 238.691 690.499 233.604 698.786 225.319C702.692 221.416 706.101 217.161 707.958 211.857C708.68 209.796 709.522 207.515 707.891 205.732C706.133 203.811 703.77 205.053 701.808 205.684C698.121 206.869 695.108 209.277 691.604 212.161ZM266.977 234.551C275.529 229.162 283.394 223.097 287.442 213.375C288.457 210.937 289.891 208.159 287.605 205.926C285.255 203.63 282.5 205.122 280.257 206.535C267.516 214.56 257.279 225.073 249.585 238.02C249.068 238.89 248.196 240.006 249.395 241.46C251.037 241.067 252.817 240.745 254.53 240.209C258.672 238.914 262.596 237.1 266.977 234.551ZM409.889 270.334C408.584 271.866 407.142 273.468 408.311 275.61C409.495 277.777 411.733 278.009 413.942 278.002C421.341 277.978 430.033 269.814 430.952 261.749C423.363 262.789 416.694 265.808 409.889 270.334ZM596.844 199.943C597.386 200.674 598.269 201.282 598.901 200.545C602.831 195.966 606.114 191.035 606.563 184.732C601.263 188.348 596.448 192.216 596.844 199.943ZM440.609 197.254C439.41 199.647 437.597 201.919 439.027 205.772C443.142 200.611 448.636 197.489 450.594 190.575C445.54 191.049 443.31 193.896 440.609 197.254Z" fill="black"/>
<path d="M681.809 41.0895C685.407 46.3868 689.862 50.4494 693.935 54.8362C701.631 63.123 702.681 72.5992 700.067 83.1934C698.246 90.5778 698.778 98.3993 696.265 105.734C692 118.184 688.335 130.992 679.05 140.869C666.452 154.271 651.175 162.261 632.358 162.336C629.535 162.347 626.766 162.154 624.317 164.194C613.651 173.078 600.66 176.069 587.454 178.303C546.071 185.303 505.964 178.283 466.21 167.2C441.838 160.405 418.194 151.231 393.649 145.04C378.76 141.284 363.719 138.425 348.259 141.272C346.309 141.631 344.413 142.325 342.524 142.96C341.093 143.441 339.657 144.261 338.538 142.528C337.48 140.89 337.854 139.251 339.062 137.926C343.49 133.073 348.803 130.035 355.567 129.73C372.105 128.985 387.496 133.817 402.685 139.424C433.768 150.9 464.909 162.243 497.453 168.912C531.329 175.855 565.352 178.336 599.395 169.765C604.894 168.38 610.105 166.154 615.216 163.672C619.51 161.587 621.256 158.557 620.597 153.683C619.645 146.644 620.997 139.775 623.16 133.05C628.73 115.728 641.204 105.567 657.805 99.813C665.666 97.0879 673.664 94.7581 681.585 92.2037C695.978 87.5624 699.988 73.8712 690.255 62.237C687.486 58.9275 684.172 56.0809 681.243 52.8976C670.07 40.753 668.246 27.6034 675.819 12.9727C677.726 9.28872 680.083 5.83172 682.333 2.3344C683.333 0.780234 684.598 -0.963478 686.724 0.632774C688.676 2.0982 687.823 4.03619 686.714 5.51888C683.586 9.7033 681.484 14.346 679.716 19.2324C676.99 26.7669 677.432 33.9107 681.809 41.0895ZM657.056 124.67C650.481 129.382 643.865 134.048 639.344 141.026C647.397 133.667 656.632 127.733 664.209 119.783C662.018 121.274 659.826 122.764 657.056 124.67Z" fill="black"/>
<path d="M26.8988 210.39C6.82073 205.108 -1.89727 190.278 2.077 169.454C5.7256 150.337 16.8783 136.054 31.5278 124.426C54.7685 105.98 81.5823 96.5145 111.176 94.555C124.118 93.698 136.849 94.6471 149.259 98.2146C183.285 107.996 198.992 139.467 187.065 173.484C176.486 203.656 146.501 224.226 114.547 223.257C109.64 223.108 105.013 221.785 100.514 219.99C98.8445 219.323 96.8548 218.441 97.8823 216.001C98.7113 214.033 100.418 213.348 102.434 214.08C115.908 218.972 127.545 213.653 138.106 206.473C159.158 192.161 171.022 171.79 171.159 146.296C171.272 125.074 161.458 109.876 137.934 103.344C120.09 98.3888 102.21 100.478 84.6839 105.328C58.4998 112.575 36.5709 126.372 20.9017 149C14.3197 158.506 10.5092 169.052 11.0078 180.884C11.6303 195.651 22.691 205.397 37.4503 204.07C39.5812 203.878 42.2196 203.271 42.7048 206.281C43.2201 209.476 40.5781 209.938 38.1985 210.338C34.5755 210.948 30.9532 211.56 26.8988 210.39Z" fill="black"/>
<path d="M43.8039 257.901C53.3565 242.21 60.9283 225.903 68.7634 209.725C79.6366 187.274 89.0515 164.062 103.727 143.594C113.208 130.373 124.28 119.146 139.506 112.656C141.178 111.944 142.9 111.247 144.67 110.897C146.441 110.547 148.016 111.249 148.65 113.115C149.169 114.645 148.28 115.709 147.033 116.377C135.713 122.441 129.821 133.273 123.501 143.585C110.781 164.34 101.168 186.731 89.944 208.277C80.0218 227.323 70.0244 246.366 56.1791 262.992C49.3278 271.22 41.7165 278.631 32.1787 283.807C25.2513 287.566 17.9113 289.237 10.0497 288.395C6.42766 288.006 3.3168 286.513 1.03767 283.627C-0.211915 282.045 -0.496813 280.197 1.10135 278.66C2.56843 277.249 4.28252 277.59 5.54295 278.944C11.4178 285.257 17.5978 282.948 23.6462 279.512C32.4729 274.498 38.0435 266.33 43.8039 257.901Z" fill="black"/>
</svg>
